<svg width="600" height="600" viewBox="0 0 600 600" fill="none" xmlns="http://www.w3.org/2000/svg">
<path fill-rule="evenodd" clip-rule="evenodd" d="M90 114C90 100.745 100.745 90 114 90H124.712C132.338 90 139.489 92.0324 145.654 95.5851C148.433 96.5378 151.045 98.1279 153.267 100.356L433.288 381.148V114C433.288 100.745 444.033 90 457.288 90H486C499.255 90 510 100.745 510 114V486C510 499.255 499.255 510 486 510H463.288C461.092 510 458.952 509.764 456.891 509.317C452.007 509.178 447.162 507.236 443.421 503.485L166.712 226.014V486C166.712 499.255 155.967 510 142.712 510H114C100.745 510 90 499.255 90 486V114Z" fill="url(#paint0_linear_501_219)"/>
<defs>
<linearGradient id="paint0_linear_501_219" x1="43.9726" y1="300" x2="530.022" y2="353.407" gradientUnits="userSpaceOnUse">
<stop stop-color="#8B5CF6"/>
<stop offset="1" stop-color="#60A5FA"/>
</linearGradient>
</defs>
</svg>
